<svg width="22" height="24" viewBox="0 0 22 24" fill="none" xmlns="http://www.w3.org/2000/svg">
    <mask id="path-1-outside-1_168_242" maskUnits="userSpaceOnUse" x="3" y="1" width="16" height="22" fill="black">
        <rect fill="white" x="3" y="1" width="16" height="22" />
        <path fill-rule="evenodd" clip-rule="evenodd"
            d="M6.25556 2.92413C6.06653 2.41379 5.6216 2 5.07738 2C4.48236 2 4 2.48236 4 3.07738V20.9226C4 21.5176 4.48236 22 5.07738 22C5.6216 22 6.06653 21.5862 6.25556 21.0759C6.91759 19.2886 8.7916 18 11 18C13.2084 18 15.0824 19.2886 15.7444 21.0759C15.9335 21.5862 16.3784 22 16.9226 22C17.5176 22 18 21.5176 18 20.9226V3.07738C18 2.48236 17.5176 2 16.9226 2C16.3784 2 15.9335 2.41379 15.7444 2.92413C15.0824 4.71144 13.2084 6 11 6C8.7916 6 6.91759 4.71144 6.25556 2.92413Z" />
    </mask>
    <path fill-rule="evenodd" clip-rule="evenodd"
        d="M6.25556 2.92413C6.06653 2.41379 5.6216 2 5.07738 2C4.48236 2 4 2.48236 4 3.07738V20.9226C4 21.5176 4.48236 22 5.07738 22C5.6216 22 6.06653 21.5862 6.25556 21.0759C6.91759 19.2886 8.7916 18 11 18C13.2084 18 15.0824 19.2886 15.7444 21.0759C15.9335 21.5862 16.3784 22 16.9226 22C17.5176 22 18 21.5176 18 20.9226V3.07738C18 2.48236 17.5176 2 16.9226 2C16.3784 2 15.9335 2.41379 15.7444 2.92413C15.0824 4.71144 13.2084 6 11 6C8.7916 6 6.91759 4.71144 6.25556 2.92413Z"
        fill="#A66DC9" />
    <path
        d="M15.7444 2.92413L16.6822 3.27148L15.7444 2.92413ZM15.7444 21.0759L14.8067 21.4232L15.7444 21.0759ZM3 3.07738V20.9226H5V3.07738H3ZM7.1933 21.4232C7.69615 20.0657 9.1685 19 11 19V17C8.4147 17 6.13904 18.5115 5.31783 20.7285L7.1933 21.4232ZM11 19C12.8315 19 14.3039 20.0657 14.8067 21.4232L16.6822 20.7285C15.861 18.5115 13.5853 17 11 17V19ZM19 20.9226V3.07738H17V20.9226H19ZM14.8067 2.57679C14.3039 3.93435 12.8315 5 11 5V7C13.5853 7 15.861 5.48853 16.6822 3.27148L14.8067 2.57679ZM11 5C9.1685 5 7.69615 3.93435 7.1933 2.57679L5.31783 3.27148C6.13904 5.48853 8.4147 7 11 7V5ZM16.9226 1C15.8358 1 15.0925 1.8052 14.8067 2.57679L16.6822 3.27148C16.7207 3.16741 16.7812 3.08782 16.8364 3.04233C16.8868 3.00077 16.9149 3 16.9226 3V1ZM19 3.07738C19 1.93007 18.0699 1 16.9226 1V3C16.9654 3 17 3.03464 17 3.07738H19ZM16.9226 23C18.0699 23 19 22.0699 19 20.9226H17C17 20.9654 16.9654 21 16.9226 21V23ZM5.07738 23C6.16421 23 6.9075 22.1948 7.1933 21.4232L5.31783 20.7285C5.27928 20.8326 5.2188 20.9122 5.16361 20.9577C5.11319 20.9992 5.08508 21 5.07738 21V23ZM3 20.9226C3 22.0699 3.93007 23 5.07738 23V21C5.03464 21 5 20.9654 5 20.9226H3ZM5.07738 1C3.93007 1 3 1.93007 3 3.07738H5C5 3.03464 5.03464 3 5.07738 3V1ZM14.8067 21.4232C15.0925 22.1948 15.8358 23 16.9226 23V21C16.9149 21 16.8868 20.9992 16.8364 20.9577C16.7812 20.9122 16.7207 20.8326 16.6822 20.7285L14.8067 21.4232ZM5.07738 3C5.08508 3 5.11319 3.00077 5.16361 3.04233C5.2188 3.08782 5.27928 3.16741 5.31783 3.27148L7.1933 2.57679C6.9075 1.8052 6.16421 1 5.07738 1V3Z"
        fill="" mask="url(#path-1-outside-1_168_242)" />
    <path d="M6 14H10V15H6V14Z" fill="white" fill-opacity="0.42" />
    <path d="M12 14H16V15H12V14Z" fill="white" fill-opacity="0.42" />
</svg>